HIERARCHY
ROOT Hips
{
	OFFSET	0.00	0.00	0.00
	CHANNELS 6 Xposition Yposition Zposition Zrotation Xrotation Yrotation
	JOINT LeftUpLeg
	{
		OFFSET	 0.126116	-0.014019	-0.065224
		CHANNELS 3 Zrotation Xrotation Yrotation
		JOINT LeftLeg
		{
			OFFSET	 0.000000	 0.000000	 0.569914
			CHANNELS 3 Zrotation Xrotation Yrotation
			JOINT LeftFoot
			{
				OFFSET	 0.000000	 0.000000	 0.544423
				CHANNELS 3 Zrotation Xrotation Yrotation
				JOINT LeftToeBase
				{
					OFFSET	 0.000000	 0.000000	 0.207117
					CHANNELS 3 Zrotation Xrotation Yrotation
					End Site
					{
						OFFSET	 0.000000	 0.000000	 0.207117
					}
				}
			}
		}
	}
	JOINT RightUpLeg
	{
		OFFSET	-0.124023	-0.008373	-0.065224
		CHANNELS 3 Zrotation Xrotation Yrotation
		JOINT RightLeg
		{
			OFFSET	 0.000000	 0.000000	 0.570047
			CHANNELS 3 Zrotation Xrotation Yrotation
			JOINT RightFoot
			{
				OFFSET	 0.000000	 0.000000	 0.544354
				CHANNELS 3 Zrotation Xrotation Yrotation
				JOINT RightToeBase
				{
					OFFSET	 0.000000	 0.000000	 0.207540
					CHANNELS 3 Zrotation Xrotation Yrotation
					End Site
					{
						OFFSET	 0.000000	 0.000000	 0.207540
					}
				}
			}
		}
	}
	JOINT Spine
	{
		OFFSET	 0.000184	-0.007763	 0.117403
		CHANNELS 3 Zrotation Xrotation Yrotation
		JOINT Spine1
		{
			OFFSET	 0.000000	 0.000000	 0.137269
			CHANNELS 3 Zrotation Xrotation Yrotation
			JOINT Spine2
			{
				OFFSET	 0.000000	 0.000000	 0.156879
				CHANNELS 3 Zrotation Xrotation Yrotation
				JOINT LeftShoulder
				{
					OFFSET	 0.080501	-0.002496	 0.160144
					CHANNELS 3 Zrotation Xrotation Yrotation
					JOINT LeftArm
					{
						OFFSET	 0.000000	 0.000000	 0.164363
						CHANNELS 3 Zrotation Xrotation Yrotation
						JOINT LeftForeArm
						{
							OFFSET	 0.000000	 0.000000	 0.364576
							CHANNELS 3 Zrotation Xrotation Yrotation
							JOINT LeftHand
							{
								OFFSET	 0.000000	 0.000000	 0.360812
								CHANNELS 3 Zrotation Xrotation Yrotation
								JOINT LeftHandIndex1
								{
									OFFSET	 0.000000	 0.000000	 0.086006
									CHANNELS 3 Zrotation Xrotation Yrotation
									JOINT LeftHandIndex2
									{
										OFFSET	 0.000000	 0.000000	 0.047236
										CHANNELS 3 Zrotation Xrotation Yrotation
										JOINT LeftHandIndex3
										{
											OFFSET	-0.004284	-0.000551	 0.038166
											CHANNELS 3 Zrotation Xrotation Yrotation
											End Site
											{
												OFFSET	-0.004284	-0.000551	 0.038166
											}
										}
									}
								}
							}
						}
					}
				}
				JOINT Neck
				{
					OFFSET	 0.000000	 0.000000	 0.176489
					CHANNELS 3 Zrotation Xrotation Yrotation
					JOINT Head
					{
						OFFSET	 0.000000	-0.001747	 0.077940
						CHANNELS 3 Zrotation Xrotation Yrotation
						End Site
						{
							OFFSET	 0.000000	-0.001747	 0.077940
						}
					}
				}
				JOINT RightShoulder
				{
					OFFSET	-0.080363	 0.000306	 0.159706
					CHANNELS 3 Zrotation Xrotation Yrotation
					JOINT RightArm
					{
						OFFSET	 0.000000	 0.000000	 0.164196
						CHANNELS 3 Zrotation Xrotation Yrotation
						JOINT RightForeArm
						{
							OFFSET	 0.000000	 0.000000	 0.365611
							CHANNELS 3 Zrotation Xrotation Yrotation
							JOINT RightHand
							{
								OFFSET	 0.000000	 0.000000	 0.360648
								CHANNELS 3 Zrotation Xrotation Yrotation
								JOINT RightHandIndex1
								{
									OFFSET	 0.000000	 0.000000	 0.069977
									CHANNELS 3 Zrotation Xrotation Yrotation
									JOINT RightHandIndex2
									{
										OFFSET	 0.000000	 0.000000	 0.052305
										CHANNELS 3 Zrotation Xrotation Yrotation
										JOINT RightHandIndex3
										{
											OFFSET	 0.009002	-0.000782	 0.042196
											CHANNELS 3 Zrotation Xrotation Yrotation
											End Site
											{
												OFFSET	 0.009002	-0.000782	 0.042196
											}
										}
									}
								}
							}
						}
					}
				}
			}
		}
	}
}
MOTION
Frames:    4
Frame Time: 0.03333334
 0.012743	 0.056193	 1.202356	 5.165309	-1.175173	-3.141579	-0.452683	-12.215310	-170.667200	 1.020636	-38.193700	 0.413003	 50.377240	 79.780030	-54.754720	-2.369449	 31.606920	-0.069738	-5.401550	-30.337640	-176.408300	 11.295750	-52.332800	 9.593984	 24.169970	 79.548100	-20.439590	 2.358905	 33.009030	 0.103437	-3.617101	 8.668376	 1.596239	-0.590808	 1.892613	 0.508577	-1.353299	-2.340423	-0.584161	-93.974480	 58.959080	 175.312200	 23.862220	 42.326320	-31.434040	-1.535904	-1.497674	-14.409620	-1.853571	-26.566770	-8.461014	-4.869655	 19.255950	-2.791809	-3.877604	 21.522990	 2.198766	-4.806025	 5.571857	 0.145424	-0.066996	-5.084511	 0.191160	-3.371201	 2.191273	 2.489214	 89.767850	 61.664680	 179.966000	-20.235190	 53.451900	 9.978095	-1.602335	-2.737156	 13.861280	-4.779677	-11.841410	 0.539456	 6.290389	 24.554660	-0.537594	 1.924383	 44.384470	-7.027740	 0.582549	 24.028760	 3.539850
 0.012671	 0.054990	 1.202334	 5.240777	-1.106387	-3.145316	-0.519761	-12.228990	-170.672300	 1.050600	-38.179700	 0.431399	 50.314800	 79.778310	-54.714150	-2.369320	 31.628040	-0.070222	-5.606310	-30.525460	-176.414500	 11.413320	-52.205680	 9.672305	 25.975210	 80.080710	-22.378970	 2.358924	 33.007050	 0.103386	-3.661258	 8.621871	 1.578229	-0.589624	 1.859042	 0.530062	-1.367301	-2.342190	-0.590935	-93.993030	 58.962050	 175.272200	 23.907170	 42.238720	-31.427150	-1.569445	-1.511731	-14.620130	-1.832652	-26.717800	-8.543412	-4.869004	 19.272640	-2.792894	-3.876549	 21.536370	 2.197699	-4.805784	 5.574640	 0.145267	-0.063190	-5.087291	 0.196612	-3.372422	 2.186800	 2.478774	 89.760580	 61.677710	 179.948800	-20.179250	 53.504130	 9.852530	-1.661554	-2.758676	 13.891940	-4.807526	-11.908200	 0.512354	 6.288571	 24.424330	-0.539411	 1.939914	 44.256990	-7.041564	 0.610901	 23.903700	 3.525602
 0.012600	 0.053797	 1.202311	 5.312373	-1.041099	-3.148911	-0.584058	-12.238850	-170.677600	 1.079052	-38.165530	 0.448844	 50.263080	 79.778660	-54.683030	-2.369202	 31.648080	-0.070674	-5.799778	-30.706030	-176.421400	 11.520290	-52.077720	 9.741684	 27.878420	 80.563220	-24.410910	 2.358938	 33.005170	 0.103344	-3.703408	 8.577770	 1.561094	-0.588730	 1.827874	 0.550292	-1.380563	-2.344129	-0.597274	-94.010670	 58.964890	 175.234300	 23.947550	 42.152710	-31.423300	-1.600712	-1.524961	-14.820120	-1.814234	-26.862520	-8.621984	-4.868381	 19.288490	-2.793931	-3.875559	 21.549090	 2.196686	-4.805565	 5.577277	 0.145109	-0.059553	-5.089938	 0.201819	-3.373605	 2.182515	 2.468837	 89.753730	 61.690070	 179.932400	-20.126150	 53.554290	 9.731101	-1.717920	-2.779294	 13.921140	-4.833773	-11.973240	 0.486633	 6.286840	 24.300680	-0.541137	 1.954587	 44.136040	-7.054596	 0.637752	 23.785030	 3.512158
 0.012153	 0.045993	 1.202135	 5.721191	-0.668582	-3.171452	-0.963992	-12.233040	-170.716000	 1.242066	-38.064000	 0.548345	 50.106000	 79.817810	-54.640850	-2.368501	 31.762460	-0.073278	-6.888614	-31.776070	-176.478300	 12.040380	-51.200120	 10.039470	 44.347550	 82.901100	-41.655340	 2.359006	 32.994480	 0.103094	-3.949043	 8.326523	 1.462969	-0.588229	 1.665173	 0.665210	-1.456366	-2.362361	-0.633359	-94.111210	 58.981200	 175.017700	 24.131450	 41.606550	-31.454750	-1.769179	-1.599200	-15.955230	-1.736035	-27.713930	-9.078695	-4.864843	 19.378960	-2.799873	-3.869873	 21.621630	 2.190909	-4.804284	 5.592362	 0.144228	-0.038875	-5.105033	 0.231422	-3.380324	 2.158034	 2.412146	 89.714680	 61.760720	 179.838800	-19.821560	 53.852230	 8.991171	-2.040035	-2.898989	 14.092130	-4.984285	-12.375270	 0.339333	 6.276916	 23.594710	-0.551029	 2.037068	 43.445420	-7.127740	 0.789972	 23.107380	 3.436814
